<svg width="158" height="110" viewBox="0 0 158 110" fill="none" xmlns="http://www.w3.org/2000/svg">
<path fill-rule="evenodd" clip-rule="evenodd" d="M0 109.346L8.16059 109.677C12.649 109.858 18.5431 110.004 21.2587 110C41.6939 109.97 56.5645 106.016 67.0677 97.8172C69.4544 95.9541 73.8963 91.5421 73.7448 91.1847C73.6933 91.063 72.9521 89.6127 72.0979 87.9622C70.7939 85.4427 69.641 82.818 68.7574 80.3587C68.617 79.9668 68.231 80.3786 66.9561 82.2798C63.9469 86.7673 58.7864 91.0714 53.3914 93.5935C44.618 97.6946 31.6705 99.671 16.8012 99.179L10.9722 98.9864V10.6715L18.5842 10.6742C31.1617 10.6783 40.2777 11.3186 46.3316 12.623C60.5049 15.6767 67.9806 22.8282 71.4643 36.6661C72.6912 41.5399 73.2349 46.4264 73.512 55.0686C73.6554 59.5463 73.9029 64.2869 74.0614 65.6033C75.4557 77.1687 79.5983 86.6026 86.3802 93.6561C94.3471 101.942 104.93 106.772 119.734 108.879C127.873 110.038 135.761 110.247 149.839 109.677L158 109.346V0L143.119 0.00109495C127.974 0.00191584 122.153 0.212335 116.031 0.980407C103.006 2.61424 93.753 6.57883 86.8863 13.4682C85.4155 14.9442 84.2118 16.3304 84.2118 16.549C84.2118 16.7673 84.6372 17.7198 85.1571 18.6658C86.1928 20.55 88.4037 25.8909 88.8835 27.6678L89.1863 28.7897L90.3856 26.6904C94.3074 19.826 100.174 15.5913 108.978 13.2704C115.498 11.5517 121.69 10.9727 135.85 10.7579L147.028 10.5883V98.9864L141.199 99.1777C123.229 99.7679 109.187 96.9744 99.918 90.9661C97.0776 89.1249 92.5153 84.6677 90.8308 82.0882C86.6915 75.7499 84.502 67.49 84.4845 58.1458C84.4691 50.1384 83.6599 41.5208 82.3901 35.8452C78.1252 16.7816 67.1072 5.8113 48.455 2.05741C40.146 0.385268 33.8608 0 14.8857 0H0V109.346ZM21.9444 88.6553H32.9167V19.7012H21.9444V88.6553ZM123.986 88.6553H134.958V19.7012H123.986V88.6553ZM43.8889 77.7102H54.8611V31.7408H43.8889V77.7102ZM102.042 77.7102H113.014V31.7408H102.042V77.7102Z" fill="url(#paint0_linear_849_23)"/>
<defs>
<linearGradient id="paint0_linear_849_23" x1="0" y1="0" x2="162.699" y2="102.545" gradientUnits="userSpaceOnUse">
<stop stop-color="#FF5D8E"/>
<stop offset="1" stop-color="#B251FF"/>
</linearGradient>
</defs>
</svg>
