<svg width="137" height="27" viewBox="0 0 137 27" fill="none" xmlns="http://www.w3.org/2000/svg">
<path d="M6.704 0.799998C8.672 0.799998 10.148 1.328 11.132 2.384C12.116 3.44 12.608 4.988 12.608 7.028V19.772C12.608 21.812 12.116 23.36 11.132 24.416C10.148 25.472 8.672 26 6.704 26H0.44V0.799998H6.704ZM4.4 22.4H6.632C7.28 22.4 7.772 22.208 8.108 21.824C8.468 21.44 8.648 20.816 8.648 19.952V6.848C8.648 5.984 8.468 5.36 8.108 4.976C7.772 4.592 7.28 4.4 6.632 4.4H4.4V22.4ZM24.5313 11.42V15.02H19.0953V22.4H25.9353V26H15.1353V0.799998H25.9353V4.4H19.0953V11.42H24.5313ZM27.8852 6.848C27.8852 4.808 28.3772 3.248 29.3612 2.168C30.3452 1.064 31.7972 0.512 33.7172 0.512C35.6372 0.512 37.0892 1.064 38.0732 2.168C39.0572 3.248 39.5492 4.808 39.5492 6.848V7.64H35.8052V6.596C35.8052 5.732 35.6372 5.108 35.3012 4.724C34.9652 4.316 34.4732 4.112 33.8252 4.112C33.1772 4.112 32.6852 4.316 32.3492 4.724C32.0132 5.108 31.8452 5.732 31.8452 6.596C31.8452 7.652 32.1212 8.576 32.6732 9.368C33.2492 10.16 34.1012 11.06 35.2292 12.068C36.1652 12.932 36.9212 13.7 37.4972 14.372C38.0732 15.02 38.5652 15.812 38.9732 16.748C39.3812 17.684 39.5852 18.752 39.5852 19.952C39.5852 21.992 39.0812 23.564 38.0732 24.668C37.0652 25.748 35.6012 26.288 33.6812 26.288C31.7612 26.288 30.2972 25.748 29.2892 24.668C28.2812 23.564 27.7772 21.992 27.7772 19.952V18.404H31.5212V20.204C31.5212 21.836 32.2052 22.652 33.5732 22.652C34.9412 22.652 35.6252 21.836 35.6252 20.204C35.6252 19.148 35.3372 18.224 34.7612 17.432C34.2092 16.64 33.3692 15.74 32.2412 14.732C31.3052 13.868 30.5492 13.112 29.9732 12.464C29.3972 11.792 28.9052 10.988 28.4972 10.052C28.0892 9.116 27.8852 8.048 27.8852 6.848ZM51.2501 11.42V15.02H45.8141V22.4H52.6541V26H41.8541V0.799998H52.6541V4.4H45.8141V11.42H51.2501ZM58.636 26H55.072V0.799998H60.04L64.108 15.884V0.799998H67.636V26H63.568L58.636 7.748V26ZM79.4713 0.799998H83.1073L79.2193 26H73.3153L69.4273 0.799998H73.4233L76.4473 21.356L79.4713 0.799998ZM84.5965 6.848C84.5965 4.832 85.1125 3.272 86.1445 2.168C87.1765 1.064 88.6645 0.512 90.6085 0.512C92.5525 0.512 94.0405 1.064 95.0725 2.168C96.1045 3.272 96.6205 4.832 96.6205 6.848V19.952C96.6205 21.968 96.1045 23.528 95.0725 24.632C94.0405 25.736 92.5525 26.288 90.6085 26.288C88.6645 26.288 87.1765 25.736 86.1445 24.632C85.1125 23.528 84.5965 21.968 84.5965 19.952V6.848ZM88.5565 20.204C88.5565 21.86 89.2405 22.688 90.6085 22.688C91.9765 22.688 92.6605 21.86 92.6605 20.204V6.596C92.6605 4.94 91.9765 4.112 90.6085 4.112C89.2405 4.112 88.5565 4.94 88.5565 6.596V20.204ZM103.154 0.799998V22.4H109.67V26H99.1939V0.799998H103.154ZM119.198 0.799998H122.834L118.946 26H113.042L109.154 0.799998H113.15L116.174 21.356L119.198 0.799998ZM132.588 26L131.904 21.428H127.044L126.36 26H122.724L126.756 0.799998H132.552L136.584 26H132.588ZM131.364 18.008L129.456 5.264L127.548 18.008H131.364Z" fill="#9225E7"/>
</svg>
