<svg width="182" height="172" viewBox="0 0 182 172" fill="none" xmlns="http://www.w3.org/2000/svg">
<path fill-rule="evenodd" clip-rule="evenodd" d="M13.7004 0.356469C7.94656 1.4698 2.79558 6.6825 0.652991 13.5606C0.0316709 15.5556 0 18.2455 0 68.8915C0 119.578 0.0313151 122.227 0.65477 124.241C2.84647 131.322 7.94763 136.285 14.2106 137.428C15.4401 137.652 20.8324 137.814 27.1217 137.814C38.5955 137.814 39.8801 137.652 40.7167 136.104C41.3843 134.867 41.1726 133 40.2427 131.928L39.3844 130.939L26.8093 130.763C14.6512 130.592 14.1929 130.561 12.9886 129.815C10.9909 128.579 9.18635 126.515 8.11417 124.241L7.11707 122.125L7.01956 88.0162L6.92206 53.9066L84.4177 53.9958L161.913 54.0847V72.0644C161.913 89.4296 161.891 90.0402 161.248 89.9309C159.938 89.7077 157.025 90.6779 155.468 91.8554L153.882 93.0544L150.552 91.7532L147.222 90.4519L147.075 88.429C146.895 85.9764 145.685 83.9747 143.522 82.5557C142.102 81.6232 141.826 81.5781 136.853 81.4663C131.007 81.3352 129.6 81.6084 127.725 83.24C126.12 84.6357 125.187 86.4523 124.874 88.789C124.711 90.0084 124.433 90.6998 124.054 90.8306C123.739 90.9391 122.349 91.5367 120.966 92.1582L118.451 93.2881L117.407 92.4399C114.679 90.2217 111.298 89.5826 108.476 90.7509C106.862 91.419 101.046 97.0082 100.133 98.7684C98.5817 101.759 98.9632 105.146 101.117 107.508L102.378 108.891L101.053 112.208L99.7279 115.525L97.6697 115.672C95.1762 115.851 93.1606 117.045 91.7244 119.193C90.7853 120.597 90.7376 120.88 90.6273 125.711L90.512 130.763H79.6674C67.899 130.763 67.2819 130.853 66.4361 132.692C65.7589 134.164 65.9343 135.25 67.0488 136.486L68.0869 137.637L83.9668 137.814L99.8468 137.99L101.096 141.072L102.345 144.155L101.239 145.519C99.0909 148.167 98.6938 151.484 100.178 154.383C101.218 156.414 107.576 162.266 109.288 162.767C112.209 163.623 114.804 163.09 116.916 161.199L118.307 159.954L121.288 161.223C122.928 161.921 124.452 162.492 124.676 162.492C124.921 162.492 125.082 163.126 125.082 164.089C125.082 167.401 127.43 170.569 130.568 171.492C132.549 172.075 139.02 172.184 141.247 171.672C144.495 170.926 146.939 168.021 147.373 164.392L147.586 162.611L150.804 161.332L154.023 160.052L155.173 161.052C157.86 163.39 161.681 163.773 164.707 162.008C166.791 160.793 171.561 155.819 172.401 153.985C173.683 151.187 173.222 148.045 171.184 145.686L169.953 144.262L171.244 141.076L172.535 137.891L174.557 137.664C177.224 137.365 179.512 135.924 180.814 133.722C181.717 132.197 181.821 131.661 181.958 127.829C182.15 122.514 181.71 120.428 179.977 118.422C178.409 116.606 176.364 115.622 174.14 115.611C172.636 115.604 172.467 115.517 172.25 114.634C172.119 114.101 171.515 112.588 170.908 111.273L169.804 108.881L170.911 107.747C174 104.585 173.875 100.173 170.6 96.742L168.852 94.9116L168.847 55.6369C168.841 12.026 168.949 14.0965 166.452 9.34807C163.99 4.66384 159.528 1.21844 154.803 0.352944C152.221 -0.119816 16.1451 -0.116643 13.7004 0.356469ZM155.51 7.84906C158.701 9.32093 161.077 12.8633 161.737 17.1297C161.962 18.5854 162.07 24.9664 162.011 33.2847L161.913 47.0338H84.5152H7.11707V31.3457V15.6575L8.22484 13.366C9.49452 10.7399 11.4645 8.62747 13.5224 7.68654C14.8907 7.06077 17.6279 7.03539 84.3372 7.03151L153.729 7.02728L155.51 7.84906ZM29.7138 15.7908C26.5153 16.8304 23.5176 19.4685 22.1238 22.4701C21.532 23.7438 21.3573 24.7997 21.3548 27.1152C21.3516 29.6863 21.4925 30.3966 22.3455 32.1177C23.6415 34.7322 26.6018 37.4277 29.0867 38.2562C31.3713 39.0174 35.0192 39.0234 37.1016 38.2693C45.1877 35.3407 47.6374 25.1251 41.7067 19.0652C39.33 16.6365 37.2084 15.728 33.6281 15.6054C31.9645 15.5482 30.2031 15.6318 29.7138 15.7908ZM60.2189 15.9995C58.4948 16.6524 55.9871 18.4366 55.074 19.6603C53.0912 22.3171 52.6684 23.6275 52.6674 27.1152C52.6663 29.9574 52.7983 30.7312 53.5392 32.227C56.3593 37.9231 63.3423 40.4497 69.1405 37.8716C78.3144 33.793 78.5368 21.1346 69.5156 16.4987C67.5492 15.488 62.3121 15.207 60.2189 15.9995ZM102.079 16.2093C98.3522 17.6416 95.6153 21.05 94.8609 25.198C93.8944 30.5105 96.679 35.5667 101.909 37.9964L103.909 38.9253H122.236C139.092 38.9253 140.712 38.8735 142.435 38.2788C144.926 37.4186 147.892 34.7068 149.176 32.1177C150.033 30.3882 150.168 29.6986 150.156 27.1152C150.144 24.5888 149.989 23.8066 149.17 22.1292C148.094 19.9275 145.899 17.7266 143.533 16.4758L141.986 15.6575L122.947 15.5817C104.673 15.5088 103.836 15.5341 102.079 16.2093ZM35.2138 22.8772C37.0084 23.7378 37.8987 25.1624 37.897 27.1695C37.8955 29.1032 36.9333 30.6974 35.3067 31.462C31.856 33.0841 28.2903 30.8229 28.2903 27.0126C28.2903 25.1649 29.4696 23.4642 31.2973 22.6756C32.7933 22.0301 33.526 22.0678 35.2138 22.8772ZM66.931 23.0482C68.5128 24.0752 69.2711 25.6733 69.101 27.6221C68.9747 29.0714 68.7359 29.5565 67.6755 30.5197C65.4372 32.5514 62.791 32.5263 60.8189 30.4548C59.2339 28.7901 58.9887 27.1243 60.0282 25.0803C61.4231 22.3361 64.4575 21.4428 66.931 23.0482ZM140.129 22.6629C140.759 22.9287 141.674 23.576 142.163 24.1016C142.901 24.8931 143.053 25.4092 143.053 27.1152C143.053 28.8243 142.902 29.3337 142.163 30.1167C140.299 32.0934 140.737 32.0508 122.342 32.0494C105.997 32.0483 105.287 32.0208 104.173 31.3474C100.713 29.2576 100.873 24.6132 104.468 22.7972C105.578 22.2363 107.19 22.1806 122.336 22.1803C135.645 22.1796 139.213 22.2765 140.129 22.6629ZM56.4935 74.4232C55.8587 74.5907 55.1135 75.0804 54.8384 75.5112C54.2025 76.5064 47.1506 105.724 47.1506 107.363C47.1506 108.77 48.3178 110.15 49.8262 110.525C51.0468 110.828 53.0901 109.896 53.562 108.82C54.1676 107.44 61.0292 78.5166 61.021 77.3796C61.005 75.2034 58.8567 73.8006 56.4935 74.4232ZM32.4951 77.172C31.2934 77.9053 21.138 89.5124 20.6171 90.7481C19.6605 93.0163 20.1655 94.1134 24.335 98.8245C26.4104 101.17 29.1561 104.159 30.4368 105.468C32.5047 107.581 32.9164 107.847 34.1139 107.847C36.8376 107.847 38.4777 104.772 36.9394 102.55C36.6073 102.07 34.4406 99.5835 32.1243 97.0237L27.9128 92.3694L32.3172 87.505C34.7395 84.8296 36.9063 82.2941 37.1322 81.8707C38.2848 79.7078 36.9742 77.2513 34.5171 76.9696C33.7345 76.8797 32.8246 76.971 32.4951 77.172ZM71.6771 77.8542C70.8771 78.6467 70.6369 79.2076 70.6369 80.2825C70.6369 81.576 70.9938 82.0797 75.4324 87.0506L80.2275 92.4212L75.8441 97.226C73.4332 99.8683 71.2753 102.377 71.0486 102.8C69.833 105.074 71.4902 107.847 74.0638 107.847C75.6046 107.847 76.7134 106.826 83.5127 99.1478C87.7349 94.3796 88.3491 93.1383 87.5809 90.9282C87.1054 89.5607 76.4982 77.4509 75.4156 77.0391C74.0926 76.536 72.7016 76.8395 71.6771 77.8542ZM139.957 88.5281C140.215 88.7837 140.384 90.0218 140.384 91.6534C140.384 95.2194 140.925 95.929 144.406 96.9338C145.815 97.3403 148.613 98.4666 150.625 99.4368C155.038 101.565 155.515 101.528 158.191 98.8432C159.247 97.7848 160.271 96.9186 160.469 96.9186C161.056 96.9186 166.006 101.965 166.006 102.562C166.006 102.865 165.125 103.974 164.048 105.027C161.546 107.475 161.505 108.268 163.659 112.411C164.521 114.07 165.578 116.617 166.007 118.071C167.101 121.777 167.76 122.302 171.32 122.302C173.268 122.302 174.227 122.449 174.515 122.794C174.785 123.116 174.892 124.547 174.826 126.936L174.724 130.586L171.699 130.763C170.036 130.86 168.336 131.131 167.923 131.366C167.132 131.815 167.013 132.069 165.47 136.58C164.94 138.131 163.962 140.367 163.299 141.549C161.498 144.754 161.617 145.834 164.048 148.36C165.125 149.478 166.006 150.612 166.006 150.881C166.006 151.53 161.362 156.146 160.709 156.146C160.428 156.146 159.275 155.273 158.147 154.207C155.53 151.734 154.751 151.695 150.461 153.827C148.735 154.684 146.362 155.656 145.188 155.986C142.476 156.749 141.258 157.365 140.891 158.16C140.731 158.506 140.511 160.138 140.403 161.786L140.206 164.783L136.522 164.884C134.11 164.95 132.666 164.844 132.34 164.577C131.993 164.291 131.844 163.344 131.844 161.438C131.844 158.157 131.2 157.078 128.889 156.484C126.341 155.829 123.575 154.742 121.245 153.479C117.897 151.666 116.756 151.782 114.113 154.207C112.95 155.273 111.864 156.146 111.699 156.146C111.259 156.146 106.222 151.117 106.222 150.678C106.222 150.473 107.102 149.444 108.177 148.392C110.894 145.735 110.967 145.043 108.937 141.23C108.049 139.561 106.912 136.863 106.41 135.233C105.198 131.299 104.793 130.971 100.936 130.812C99.1589 130.739 97.7494 130.516 97.5981 130.284C97.4544 130.062 97.3344 128.34 97.3312 126.456C97.3248 122.367 97.3882 122.302 101.346 122.302C103.728 122.302 104.083 122.21 104.928 121.372C105.444 120.861 105.866 120.221 105.866 119.951C105.866 119.008 107.335 115.15 108.9 111.982C110.041 109.675 110.418 108.539 110.264 107.879C110.146 107.377 109.189 106.089 108.136 105.017C107.083 103.945 106.222 102.83 106.222 102.54C106.222 102.015 111.158 96.9186 111.666 96.9186C111.813 96.9186 112.967 97.8705 114.229 99.0339C115.745 100.431 116.822 101.149 117.4 101.149C117.882 101.149 119.918 100.353 121.925 99.3811C123.932 98.4088 126.656 97.2941 127.979 96.9038C131.288 95.9276 131.844 95.1725 131.844 91.6534C131.844 90.0218 132.013 88.7837 132.271 88.5281C132.852 87.952 139.376 87.952 139.957 88.5281ZM132.555 105.271C128.606 105.926 123.864 108.389 120.835 111.359C115.37 116.716 113.195 124.545 115.11 131.963C116.122 135.883 117.734 138.639 120.812 141.711C125.243 146.131 129.925 148.08 136.114 148.08C143.04 148.08 148.701 145.449 153.081 140.192C156.255 136.383 157.837 131.892 157.847 126.664C157.855 122.686 157.423 120.835 155.605 117.041C152.929 111.456 147.322 107.026 141.096 105.576C138.954 105.078 134.649 104.923 132.555 105.271ZM142.598 113.457C148.404 116.311 151.85 122.794 150.798 128.88C149.407 136.927 141.816 142.391 133.897 141.045C127.49 139.957 122.441 134.898 121.587 128.713C120.622 121.723 124.175 115.771 131.013 112.921C132.84 112.159 133.517 112.069 136.648 112.168C139.843 112.269 140.45 112.401 142.598 113.457ZM51.4358 131.704C49.4775 133.438 49.9583 136.334 52.3695 137.332C54.7726 138.327 57.1145 136.753 57.1145 134.144C57.1145 132.42 55.8978 131.123 54.0506 130.878C52.7926 130.71 52.4289 130.825 51.4358 131.704Z" fill="url(#paint0_linear_853_133)"/>
<defs>
<linearGradient id="paint0_linear_853_133" x1="0.0686812" y1="147.151" x2="180.02" y2="182.029" gradientUnits="userSpaceOnUse">
<stop stop-color="#FF5D8E"/>
<stop offset="1" stop-color="#B251FF"/>
</linearGradient>
</defs>
</svg>
