<svg width="326" height="84" viewBox="0 0 326 84" fill="none" xmlns="http://www.w3.org/2000/svg">
<path d="M32.12 35.4V47.4H14V72H36.8V84H0.8V-5.72205e-06H36.8V12H14V35.4H32.12ZM56.7397 84H44.8597V-5.72205e-06H61.4197L74.9797 50.28V-5.72205e-06H86.7397V84H73.1797L56.7397 23.16V84ZM133.151 -5.72205e-06V12H119.351V84H106.151V12H92.3506V-5.72205e-06H133.151ZM170.284 35.4V47.4H152.164V72H174.964V84H138.964V-5.72205e-06H174.964V12H152.164V35.4H170.284ZM194.904 84H183.024V-5.72205e-06H199.584L213.144 50.28V-5.72205e-06H224.904V84H211.344L194.904 23.16V84ZM255.235 -5.72205e-06C261.795 -5.72205e-06 266.715 1.76 269.995 5.28C273.275 8.8 274.915 13.96 274.915 20.76V63.24C274.915 70.04 273.275 75.2 269.995 78.72C266.715 82.24 261.795 84 255.235 84H234.355V-5.72205e-06H255.235ZM247.555 72H254.995C257.155 72 258.795 71.36 259.915 70.08C261.115 68.8 261.715 66.72 261.715 63.84V20.16C261.715 17.28 261.115 15.2 259.915 13.92C258.795 12.64 257.155 12 254.995 12H247.555V72ZM312.622 84L310.342 68.76H294.142L291.862 84H279.742L293.182 -5.72205e-06H312.502L325.942 84H312.622ZM308.542 57.36L302.182 14.88L295.822 57.36H308.542Z" fill="#FF5D8E"/>
</svg>
