<svg width="146" height="47" viewBox="0 0 146 47" fill="none" xmlns="http://www.w3.org/2000/svg">
<path d="M17.264 20.08V26.48H7.6V39.6H19.76V46H0.56V1.2H19.76V7.6H7.6V20.08H17.264ZM40.1225 1.2H46.5865L39.6745 46H29.1785L22.2665 1.2H29.3705L34.7465 37.744L40.1225 1.2ZM49.234 11.952C49.234 8.368 50.1513 5.59466 51.986 3.632C53.8207 1.66933 56.466 0.688 59.922 0.688C63.378 0.688 66.0233 1.66933 67.858 3.632C69.6927 5.59466 70.61 8.368 70.61 11.952V35.248C70.61 38.832 69.6927 41.6053 67.858 43.568C66.0233 45.5307 63.378 46.512 59.922 46.512C56.466 46.512 53.8207 45.5307 51.986 43.568C50.1513 41.6053 49.234 38.832 49.234 35.248V11.952ZM56.274 35.696C56.274 38.64 57.49 40.112 59.922 40.112C62.354 40.112 63.57 38.64 63.57 35.696V11.504C63.57 8.56 62.354 7.088 59.922 7.088C57.49 7.088 56.274 8.56 56.274 11.504V35.696ZM82.225 1.2V39.6H93.809V46H75.185V1.2H82.225ZM103.593 35.76C103.593 38.6613 104.809 40.112 107.241 40.112C109.673 40.112 110.889 38.6613 110.889 35.76V1.2H117.545V35.312C117.545 38.9387 116.649 41.7333 114.857 43.696C113.065 45.616 110.462 46.576 107.049 46.576C103.635 46.576 101.033 45.616 99.2405 43.696C97.4485 41.7333 96.5525 38.9387 96.5525 35.312V1.2H103.593V35.76ZM138.053 46L136.837 37.872H128.197L126.981 46H120.517L127.685 1.2H137.989L145.157 46H138.053ZM135.877 31.792L132.485 9.136L129.093 31.792H135.877Z" fill="#262626"/>
</svg>
