<svg width="32" height="32" viewBox="0 0 32 32" fill="none" xmlns="http://www.w3.org/2000/svg">
<path d="M30.72 0H1.28C0.572 0 0 0.572 0 1.28V30.72C0 31.428 0.572 32 1.28 32H30.72C31.428 32 32 31.428 32 30.72V1.28C32 0.572 31.428 0 30.72 0ZM29.44 29.44H22.076V19.608H26.236L26.86 14.78H22.076V11.696C22.076 10.296 22.464 9.344 24.468 9.344H27.024V5.024C26.58 4.964 25.064 4.832 23.296 4.832C19.608 4.832 17.084 7.084 17.084 11.216V14.776H12.916V19.604H17.088V29.44H2.56V2.56H29.44V29.44Z" fill="#262626"/>
</svg>
