<svg width="32" height="32" viewBox="0 0 32 32" fill="none" xmlns="http://www.w3.org/2000/svg">
<path d="M2.57201 2.51H2.572C2.54083 2.5209 2.5227 2.55161 2.5223 2.55442L2.52203 2.55756L2.52193 2.56021L2.52182 2.56585L2.52163 2.58588L2.52125 2.66477L2.5205 2.97972C2.52 3.25962 2.5195 3.67945 2.519 4.23921C2.518 5.35872 2.517 7.03798 2.516 9.27698C2.514 13.755 2.512 20.472 2.51 29.428C2.5209 29.4592 2.55161 29.4773 2.55442 29.4777L2.55756 29.478L2.56021 29.4781L2.56585 29.4782L2.58588 29.4784L2.66477 29.4787L2.97972 29.4795C3.25962 29.48 3.67945 29.4805 4.23921 29.481C5.35872 29.482 7.03798 29.483 9.27698 29.484C13.755 29.486 20.472 29.488 29.428 29.49C29.4592 29.4791 29.4773 29.4484 29.4777 29.4456L29.478 29.4424L29.4781 29.4398L29.4782 29.4342L29.4784 29.4141L29.4787 29.3352L29.4795 29.0203C29.48 28.7404 29.4805 28.3205 29.481 27.7608C29.482 26.6413 29.483 24.962 29.484 22.723C29.486 18.245 29.488 11.528 29.49 2.57201C29.4791 2.54083 29.4484 2.5227 29.4456 2.5223L29.4424 2.52203L29.4398 2.52193L29.4342 2.52182L29.4141 2.52163L29.3352 2.52125L29.0203 2.5205C28.7404 2.52 28.3205 2.5195 27.7608 2.519C26.6413 2.518 24.962 2.517 22.723 2.516C18.245 2.514 11.528 2.512 2.57201 2.51ZM4.418 7.15613V7.156C4.418 6.80117 4.48789 6.44981 4.62368 6.12199C4.75947 5.79417 4.95849 5.4963 5.2094 5.2454C5.4603 4.99449 5.75817 4.79547 6.08599 4.65968C6.41381 4.52389 6.76517 4.454 7.12 4.454C7.47483 4.454 7.82619 4.52389 8.15401 4.65968C8.48183 4.79547 8.7797 4.99449 9.0306 5.2454C9.28151 5.4963 9.48053 5.79417 9.61632 6.12199C9.75211 6.44981 9.822 6.80117 9.822 7.156C9.822 8.64834 8.60843 9.858 7.12 9.858C5.62354 9.858 4.41407 8.64834 4.418 7.15613ZM17.088 14.134H17.1181L17.1322 14.1074C17.76 12.9229 19.2915 11.666 21.58 11.666C23.9697 11.666 25.3742 12.4519 26.1852 13.7387C26.9996 15.0307 27.222 16.8371 27.222 18.892V27.218H22.578V19.84C22.578 18.9562 22.5696 17.9341 22.2525 17.1331C22.0933 16.7312 21.8556 16.3823 21.5002 16.1343C21.1448 15.8862 20.676 15.742 20.06 15.742C19.4365 15.742 18.9412 15.8638 18.5496 16.0806C18.1577 16.2976 17.8724 16.6082 17.6667 16.9808C17.2566 17.7238 17.162 18.7151 17.162 19.712V27.218H12.518V12.046H16.974V14.084V14.134H17.024H17.088ZM2.572 0.05H29.428C30.8204 0.05 31.95 1.17961 31.95 2.572V29.428C31.95 30.8204 30.8204 31.95 29.428 31.95H2.572C1.17961 31.95 0.05 30.8204 0.05 29.428V2.572C0.05 1.17961 1.17961 0.05 2.572 0.05ZM4.794 12.046H9.442V27.218H4.794V12.046Z" fill="#262626" stroke="#009BEB" stroke-width="0.1"/>
</svg>
