<svg width="349" height="457" viewBox="0 0 349 457" fill="none" xmlns="http://www.w3.org/2000/svg">
<path d="M25.0909 196.417C33.2505 196.417 39.3192 198.758 43.2971 203.439C47.3769 208.019 49.4168 214.532 49.4168 222.979V276.866C49.4168 285.212 47.3769 291.725 43.2971 296.406C39.3192 300.986 33.2505 303.276 25.0909 303.276H0V196.417H25.0909ZM24.9379 292.437C33.4035 292.437 37.6363 287.4 37.6363 277.324V222.368C37.6363 212.293 33.3525 207.255 24.7849 207.255H11.9335V292.437H24.9379Z" fill="url(#paint0_linear_851_66)"/>
<path d="M68.4656 303.276H57.4501L77.9512 196.417H95.2394L115.74 303.276H103.807L99.6762 281.751H72.5964L68.4656 303.276ZM97.9933 271.523L85.9068 209.851L74.1264 271.523H97.9933Z" fill="url(#paint1_linear_851_66)"/>
<path d="M148.921 196.417C157.182 196.417 163.2 198.452 166.974 202.523C170.85 206.594 172.788 212.7 172.788 220.842V229.543C172.788 235.446 171.717 240.229 169.575 243.893C167.433 247.557 164.067 250.101 159.477 251.526C164.169 252.95 167.586 255.545 169.728 259.311C171.87 262.975 172.941 267.809 172.941 273.813V290.453C172.941 293.404 173.043 295.897 173.247 297.933C173.553 299.866 174.165 301.647 175.083 303.276H162.996C162.282 301.647 161.772 299.968 161.466 298.238C161.16 296.406 161.007 293.76 161.007 290.3V273.508C161.007 267.707 159.681 263.636 157.03 261.296C154.48 258.853 150.604 257.632 145.402 257.632H136.987V303.276H125.054V196.417H148.921ZM145.861 246.793C150.961 246.793 154.735 245.725 157.182 243.587C159.732 241.45 161.007 237.634 161.007 232.138V221.91C161.007 217.025 160.038 213.362 158.1 210.919C156.163 208.477 153.001 207.255 148.615 207.255H136.987V246.793H145.861Z" fill="url(#paint2_linear_851_66)"/>
<path d="M197.352 303.276L182.664 196.417H194.292L206.837 287.4L218.771 196.57H230.551L242.332 287.552L254.418 196.417H264.822L250.287 303.276H234.529L224.278 230.764L213.722 303.276H197.352Z" fill="url(#paint3_linear_851_66)"/>
<path d="M286.395 303.276H274.461V196.417H286.395V303.276Z" fill="url(#paint4_linear_851_66)"/>
<path d="M298.512 303.276V196.417H313.659L338.443 273.661V196.417H349V303.276H336.608L309.222 216.873V303.276H298.512Z" fill="url(#paint5_linear_851_66)"/>
<path d="M39.2099 349.072C47.3695 349.072 53.4382 351.413 57.416 356.095C61.4959 360.674 63.5358 367.188 63.5358 375.635V429.522C63.5358 437.867 61.4959 444.38 57.416 449.062C53.4382 453.642 47.3695 455.931 39.2099 455.931H14.119V349.072H39.2099ZM39.0569 445.093C47.5225 445.093 51.7553 440.055 51.7553 429.98V375.024C51.7553 364.949 47.4715 359.911 38.9039 359.911H26.0525V445.093H39.0569Z" fill="url(#paint6_linear_851_66)"/>
<path d="M86.7118 455.931H74.7784V349.072H86.7118V455.931Z" fill="url(#paint7_linear_851_66)"/>
<path d="M122.084 348.004C130.142 348.004 136.16 350.396 140.138 355.179C144.217 359.962 146.257 366.526 146.257 374.871V384.031H134.936V374.261C134.936 363.982 130.754 358.842 122.39 358.842C118.208 358.842 115.047 360.216 112.905 362.964C110.865 365.61 109.845 369.376 109.845 374.261V430.743C109.845 435.628 110.865 439.445 112.905 442.192C115.047 444.838 118.208 446.161 122.39 446.161C130.754 446.161 134.936 441.022 134.936 430.743V409.371H123.92V398.686H146.257V430.133C146.257 438.478 144.217 445.042 140.138 449.825C136.16 454.608 130.142 457 122.084 457C114.129 457 108.111 454.608 104.031 449.825C100.053 445.042 98.0644 438.478 98.0644 430.133V374.871C98.0644 366.526 100.053 359.962 104.031 355.179C108.111 350.396 114.129 348.004 122.084 348.004Z" fill="url(#paint8_linear_851_66)"/>
<path d="M169.483 455.931H157.55V349.072H169.483V455.931Z" fill="url(#paint9_linear_851_66)"/>
<path d="M197.206 359.911H177.47V349.072H228.723V359.911H208.987V455.931H197.206V359.911Z" fill="url(#paint10_linear_851_66)"/>
<path d="M239.014 455.931H227.999L248.5 349.072H265.788L286.289 455.931H274.355L270.225 434.407H243.145L239.014 455.931ZM268.542 424.179L256.455 362.506L244.675 424.179H268.542Z" fill="url(#paint11_linear_851_66)"/>
<path d="M295.602 349.072H307.536V445.093H338.134V455.931H295.602V349.072Z" fill="url(#paint12_linear_851_66)"/>
<path fill-rule="evenodd" clip-rule="evenodd" d="M80.848 129.829L90.5059 130.222C95.818 130.437 102.794 130.61 106.007 130.605C130.192 130.57 147.792 125.875 160.222 116.14C163.047 113.928 168.304 108.69 168.124 108.266C168.063 108.121 167.186 106.399 166.175 104.439C164.632 101.448 163.267 98.3316 162.222 95.4116C162.056 94.9463 161.599 95.4353 160.09 97.6926C156.529 103.021 150.421 108.131 144.036 111.126C133.653 115.995 118.33 118.342 100.732 117.757L93.8335 117.529V12.6705L102.842 12.6737C117.728 12.6786 128.516 13.4388 135.681 14.9875C152.455 18.6132 161.302 27.1044 165.425 43.5344C166.877 49.3213 167.521 55.123 167.849 65.3842C168.018 70.7006 168.311 76.3292 168.499 77.8922C170.149 91.6241 175.052 102.825 183.078 111.2C192.507 121.038 205.031 126.773 222.553 129.275C232.185 130.65 241.52 130.898 258.182 130.222L267.84 129.829V0L250.228 0.00130006C232.304 0.00227471 225.415 0.25211 218.17 1.16406C202.754 3.10394 191.804 7.81118 183.677 15.9911C181.936 17.7435 180.512 19.3894 180.512 19.649C180.512 19.9082 181.015 21.0392 181.631 22.1623C182.856 24.3994 185.473 30.7408 186.041 32.8506L186.399 34.1827L187.819 31.6901C192.46 23.5398 199.403 18.5119 209.822 15.7562C217.539 13.7156 224.867 13.0282 241.625 12.7731L254.854 12.5717V117.529L247.955 117.756C226.688 118.457 210.069 115.14 199.1 108.006C195.738 105.82 190.339 100.528 188.345 97.4651C183.447 89.9395 180.855 80.1323 180.835 69.0378C180.816 59.5304 179.859 49.2985 178.356 42.5598C173.308 19.9251 160.269 6.89988 138.194 2.4428C128.36 0.457437 120.922 0 98.4651 0H80.848V129.829ZM106.819 105.262H119.805V23.3916H106.819V105.262ZM227.584 105.262H240.57V23.3916H227.584V105.262ZM132.79 92.267H145.776V37.6865H132.79V92.267ZM201.613 92.267H214.599V37.6865H201.613V92.267Z" fill="url(#paint13_linear_851_66)"/>
<defs>
<linearGradient id="paint0_linear_851_66" x1="-0.000106256" y1="-11.9476" x2="371.071" y2="438.832" gradientUnits="userSpaceOnUse">
<stop stop-color="#FF5D8E"/>
<stop offset="1" stop-color="#B251FF"/>
</linearGradient>
<linearGradient id="paint1_linear_851_66" x1="-0.000106256" y1="-11.9476" x2="371.071" y2="438.832" gradientUnits="userSpaceOnUse">
<stop stop-color="#FF5D8E"/>
<stop offset="1" stop-color="#B251FF"/>
</linearGradient>
<linearGradient id="paint2_linear_851_66" x1="-0.000106256" y1="-11.9476" x2="371.071" y2="438.832" gradientUnits="userSpaceOnUse">
<stop stop-color="#FF5D8E"/>
<stop offset="1" stop-color="#B251FF"/>
</linearGradient>
<linearGradient id="paint3_linear_851_66" x1="-0.000106256" y1="-11.9476" x2="371.071" y2="438.832" gradientUnits="userSpaceOnUse">
<stop stop-color="#FF5D8E"/>
<stop offset="1" stop-color="#B251FF"/>
</linearGradient>
<linearGradient id="paint4_linear_851_66" x1="-0.000106256" y1="-11.9476" x2="371.071" y2="438.832" gradientUnits="userSpaceOnUse">
<stop stop-color="#FF5D8E"/>
<stop offset="1" stop-color="#B251FF"/>
</linearGradient>
<linearGradient id="paint5_linear_851_66" x1="-0.000106256" y1="-11.9476" x2="371.071" y2="438.832" gradientUnits="userSpaceOnUse">
<stop stop-color="#FF5D8E"/>
<stop offset="1" stop-color="#B251FF"/>
</linearGradient>
<linearGradient id="paint6_linear_851_66" x1="-0.000106256" y1="-11.9476" x2="371.071" y2="438.832" gradientUnits="userSpaceOnUse">
<stop stop-color="#FF5D8E"/>
<stop offset="1" stop-color="#B251FF"/>
</linearGradient>
<linearGradient id="paint7_linear_851_66" x1="-0.000106256" y1="-11.9476" x2="371.071" y2="438.832" gradientUnits="userSpaceOnUse">
<stop stop-color="#FF5D8E"/>
<stop offset="1" stop-color="#B251FF"/>
</linearGradient>
<linearGradient id="paint8_linear_851_66" x1="-0.000106256" y1="-11.9476" x2="371.071" y2="438.832" gradientUnits="userSpaceOnUse">
<stop stop-color="#FF5D8E"/>
<stop offset="1" stop-color="#B251FF"/>
</linearGradient>
<linearGradient id="paint9_linear_851_66" x1="-0.000106256" y1="-11.9476" x2="371.071" y2="438.832" gradientUnits="userSpaceOnUse">
<stop stop-color="#FF5D8E"/>
<stop offset="1" stop-color="#B251FF"/>
</linearGradient>
<linearGradient id="paint10_linear_851_66" x1="-0.000106256" y1="-11.9476" x2="371.071" y2="438.832" gradientUnits="userSpaceOnUse">
<stop stop-color="#FF5D8E"/>
<stop offset="1" stop-color="#B251FF"/>
</linearGradient>
<linearGradient id="paint11_linear_851_66" x1="-0.000106256" y1="-11.9476" x2="371.071" y2="438.832" gradientUnits="userSpaceOnUse">
<stop stop-color="#FF5D8E"/>
<stop offset="1" stop-color="#B251FF"/>
</linearGradient>
<linearGradient id="paint12_linear_851_66" x1="-0.000106256" y1="-11.9476" x2="371.071" y2="438.832" gradientUnits="userSpaceOnUse">
<stop stop-color="#FF5D8E"/>
<stop offset="1" stop-color="#B251FF"/>
</linearGradient>
<linearGradient id="paint13_linear_851_66" x1="-0.000106256" y1="-11.9476" x2="371.071" y2="438.832" gradientUnits="userSpaceOnUse">
<stop stop-color="#FF5D8E"/>
<stop offset="1" stop-color="#B251FF"/>
</linearGradient>
</defs>
</svg>
