<svg width="158" height="158" viewBox="0 0 158 158" fill="none" xmlns="http://www.w3.org/2000/svg">
<path fill-rule="evenodd" clip-rule="evenodd" d="M63.6368 9.61907C64.0029 4.43256 66.5981 1.14886 71.0678 0.21663C71.7746 0.0691416 75.6918 -0.0254733 79.7729 0.00606497C87.0466 0.0626484 87.2268 0.0796544 88.8954 0.861928C92.3675 2.49017 94.0503 5.18515 94.3632 9.61907L94.5493 12.2578L122.716 12.3443L150.883 12.4309L152.585 13.2296C156.734 15.1757 158.802 19.4494 157.693 23.7816C156.995 26.5038 155.582 28.3064 153.125 29.6082L151.965 30.2225V33.8961C151.965 33.8193 151.961 33.7431 151.955 33.6678C151.961 33.7432 151.965 33.8194 151.965 33.8963V58.9895C151.952 60.6861 150.573 62.0575 148.873 62.0575C147.166 62.0575 145.782 60.6732 145.782 58.9655V68.2415V77.5174C145.782 75.8098 147.166 74.4254 148.873 74.4254C150.573 74.4254 151.952 75.7968 151.965 77.4934V107.497L153.125 108.115C159.865 111.706 159.552 121.222 152.585 124.49L150.883 125.289L116.487 125.374L82.0918 125.459V132.866V140.272L83.2512 140.89C91.6285 145.353 88.4861 158 79 158C72.986 158 68.6962 152.51 70.1808 146.713C70.8625 144.052 72.3336 142.177 74.7489 140.89L75.9083 140.272V132.866V125.459L41.5126 125.374L7.11699 125.289L5.41467 124.49C1.26617 122.544 -0.802205 118.27 0.307421 113.938C1.00492 111.216 2.41815 109.413 4.87547 108.111L6.03488 107.497V68.8598V30.2225L4.87547 29.6048C-1.86515 26.0137 -1.55164 16.4978 5.41467 13.2296L7.11699 12.4309L35.284 12.3443L63.4507 12.2578L63.6368 9.61907ZM151.965 68.2655C151.952 69.9621 150.573 71.3335 148.873 71.3335C147.166 71.3335 145.782 69.9491 145.782 68.2415C145.782 66.5338 147.166 65.1495 148.873 65.1495C150.573 65.1495 151.952 66.5208 151.965 68.2174V68.2655ZM88.2752 10.1357C88.2752 8.15748 88.2029 7.9228 87.3239 7.04375L86.3726 6.09234H79H71.6274L70.6761 7.04375C69.7971 7.9228 69.7248 8.15748 69.7248 10.1357V12.2763H79H88.2752V10.1357ZM151.014 23.6929C152.341 22.3658 152.341 20.7388 151.014 19.4117L150.062 18.4603H79H7.93753L6.9862 19.4117C5.65923 20.7388 5.65923 22.3658 6.9862 23.6929L7.93753 24.6443H79H150.062L151.014 23.6929ZM145.782 106.891V68.8598V30.8283H79H12.2184V68.8598V106.891H79H145.782ZM34.6474 42.9071C34.6474 41.641 35.3477 40.5643 36.4885 40.0758C37.6257 39.5888 38.9125 40.0764 40.4271 41.5683L41.8991 43.0184L43.4496 41.491C44.7849 40.1757 45.1711 39.9636 46.2322 39.9636C47.9462 39.9636 49.1508 41.1682 49.1508 42.8824C49.1508 43.9436 48.9387 44.3298 47.6235 45.6652L46.0961 47.2158L47.6235 48.7665C48.9387 50.1019 49.1508 50.4881 49.1508 51.5492C49.1508 53.2634 47.9462 54.4681 46.2322 54.4681C45.1711 54.4681 44.7849 54.256 43.4496 52.9406L41.8991 51.4132L40.3486 52.9406C39.0133 54.256 38.6271 54.4681 37.566 54.4681C35.852 54.4681 34.6474 53.2634 34.6474 51.5492C34.6474 50.4881 34.8595 50.1019 36.1747 48.7665L37.7021 47.2158L36.1747 45.6652C34.87 44.3403 34.6474 43.9386 34.6474 42.9071ZM20.2179 45.2475C20.6217 44.8177 21.2478 44.4114 21.6092 44.3449C22.7049 44.143 23.7713 44.4673 24.5853 45.2499L25.3583 45.9929V62.6758V79.3586L24.5362 80.1808C23.3836 81.3335 21.4587 81.3335 20.3061 80.1808L19.484 79.3586V62.6937V46.0288L20.2179 45.2475ZM110.142 47.2316C110.142 45.8288 111.028 44.5762 112.197 44.3248C112.559 44.2472 115.252 44.2048 118.181 44.2308L123.508 44.2784L124.365 45.1358L125.222 45.9929V51.8538V57.7147L124.399 58.5368C123.772 59.1648 123.272 59.359 122.284 59.359C120.479 59.359 119.55 58.3825 119.293 56.2163L119.1 54.5772L102.794 70.8822L86.4882 87.1869H85.1844C83.8896 87.1869 83.8219 87.1279 75.2565 78.5661L66.6321 69.945L61.4943 75.0833L56.3564 80.2216L56.7558 81.4203C57.7743 84.4759 56.8232 88.5171 54.5514 90.7891C51.1106 94.2305 45.0545 94.2305 41.6137 90.7891C38.1726 87.348 38.1726 81.2914 41.6137 77.8503C43.8852 75.5787 47.9264 74.6273 50.9805 75.6451L52.1779 76.0443L58.7547 69.4726C65.2346 62.9973 65.3506 62.9006 66.6337 62.9006C67.9266 62.9006 67.998 62.9627 76.56 71.5213L85.1844 80.1421L100.027 65.3024L114.87 50.4624L113.244 50.2225C111.1 49.9062 110.142 48.9826 110.142 47.2316ZM48.0826 87.4117C48.9984 87.4117 49.4906 87.1928 50.223 86.4603C51.55 85.1332 51.55 83.5062 50.223 82.1791C49.4906 81.4466 48.9984 81.2277 48.0826 81.2277C46.4106 81.2277 44.9908 82.6476 44.9908 84.3197C44.9908 85.9919 46.4106 87.4117 48.0826 87.4117ZM115.033 86.195C115.033 84.9288 115.733 83.8522 116.874 83.3637C118.011 82.8767 119.298 83.3643 120.812 84.8562L122.284 86.3063L123.835 84.7789C125.17 83.4635 125.556 83.2514 126.617 83.2514C128.332 83.2514 129.536 84.4561 129.536 86.1703C129.536 87.2314 129.324 87.6176 128.009 88.9531L126.481 90.5037L128.009 92.0543C129.324 93.3898 129.536 93.7759 129.536 94.8371C129.536 96.5513 128.332 97.756 126.617 97.756C125.556 97.756 125.17 97.5439 123.835 96.2285L122.284 94.7011L120.734 96.2285C119.399 97.5439 119.012 97.756 117.951 97.756C116.237 97.756 115.033 96.5513 115.033 94.8371C115.033 93.7759 115.245 93.3898 116.56 92.0543L118.087 90.5037L116.56 88.9531C115.255 87.6281 115.033 87.2265 115.033 86.195ZM20.3413 92.5837C18.8251 91.0677 19.6107 88.001 21.6092 87.6328C23.6473 87.2574 25.2881 88.5378 25.2881 90.5037C25.2881 92.2946 24.2119 93.3709 22.4211 93.3709C21.4481 93.3709 20.9334 93.1761 20.3413 92.5837ZM151.014 118.308C152.341 116.981 152.341 115.354 151.014 114.027L150.062 113.075H79H7.93753L6.9862 114.027C5.65923 115.354 5.65923 116.981 6.9862 118.308L7.93753 119.259H79H150.062L151.014 118.308ZM82.0918 148.942C82.0918 148.026 81.8729 147.534 81.1404 146.802C80.408 146.069 79.9158 145.85 79 145.85C77.328 145.85 75.9083 147.27 75.9083 148.942C75.9083 150.614 77.328 152.034 79 152.034C80.672 152.034 82.0918 150.614 82.0918 148.942ZM145.782 102.563C145.782 102.636 145.784 102.709 145.789 102.781C145.784 102.709 145.782 102.636 145.782 102.563V102.563Z" fill="url(#paint0_linear_853_135)"/>
<defs>
<linearGradient id="paint0_linear_853_135" x1="0.0596243" y1="135.174" x2="156.888" y2="163.9" gradientUnits="userSpaceOnUse">
<stop stop-color="#FF5D8E"/>
<stop offset="1" stop-color="#B251FF"/>
</linearGradient>
</defs>
</svg>
