<svg width="158" height="158" viewBox="0 0 158 158" fill="none" xmlns="http://www.w3.org/2000/svg">
<path fill-rule="evenodd" clip-rule="evenodd" d="M2.24015 0.212867C1.87924 0.283925 1.25405 0.692975 0.850838 1.12211L0.117898 1.90251L0.0221898 11.3783C-0.0302954 16.59 0.0135452 21.321 0.11975 21.8919C0.225956 22.4625 0.671462 23.2618 1.10956 23.6684L1.9061 24.4071H12.1864H22.4667L23.333 23.6625C24.1762 22.938 24.2033 22.8157 24.3537 19.1055L24.5081 15.293L37.2434 15.2124C44.248 15.1679 49.9788 15.2405 49.9788 15.3734C49.9788 15.5062 48.8581 16.1525 47.4885 16.8097C36.0233 22.309 24.7986 33.0802 18.2037 44.9111C13.7313 52.9343 10.7085 62.2618 9.82271 70.7734C9.6384 72.5443 9.42506 74.4307 9.34849 74.9652L9.20987 75.9371L5.51986 76.0465C1.9663 76.1522 1.79835 76.1877 0.974024 77.0123L0.117898 77.8684L0.0221898 87.3621C-0.0302954 92.5837 0.0135452 97.3227 0.11975 97.8936C0.225956 98.4642 0.671462 99.2635 1.10956 99.6701L1.9061 100.409H12.2275H22.5488L23.4513 99.5057L24.3537 98.6026V88.2871C24.3537 78.2413 24.3367 77.9537 23.7066 77.2768C22.7239 76.2214 21.8156 76.0017 18.4312 76.0017H15.3272L15.5454 73.2984C16.1036 66.386 18.3954 58.2664 21.7149 51.4402C29.4099 35.6176 42.9733 23.7376 59.3952 18.4357C62.7589 17.3494 66.582 16.4086 66.7892 16.616C66.8827 16.7096 66.9636 18.1187 66.9692 19.7472C66.9794 22.82 67.1692 23.3888 68.4054 24.0477C69.3535 24.5529 88.6465 24.5529 89.5946 24.0477C90.8308 23.3888 91.0206 22.82 91.0308 19.7472C91.0364 18.1187 91.1173 16.7096 91.2108 16.616C91.418 16.4086 95.2411 17.3494 98.6047 18.4357C115.027 23.7376 128.59 35.6176 136.285 51.4402C139.605 58.2664 141.896 66.386 142.455 73.2984L142.673 76.0017H139.569C136.184 76.0017 135.276 76.2214 134.293 77.2768C133.663 77.9537 133.646 78.2413 133.646 88.2871V98.6026L134.549 99.5057L135.451 100.409H145.773H156.094L156.89 99.6701C157.329 99.2635 157.774 98.4642 157.88 97.8936C157.986 97.3227 158.03 92.5837 157.978 87.3621L157.882 77.8684L157.026 77.0123C156.202 76.1877 156.034 76.1522 152.48 76.0465L148.79 75.9371L148.652 74.9652C148.575 74.4307 148.362 72.5443 148.177 70.7734C147.292 62.2618 144.269 52.9343 139.796 44.9111C133.201 33.0802 121.977 22.309 110.511 16.8097C109.142 16.1525 108.021 15.5062 108.021 15.3734C108.021 15.2405 113.752 15.1679 120.757 15.2124L133.492 15.293L133.646 19.1055C133.797 22.8157 133.824 22.938 134.667 23.6625L135.533 24.4071H145.814H156.094L156.89 23.6684C157.329 23.2618 157.774 22.4625 157.88 21.8919C157.986 21.321 158.03 16.582 157.978 11.3604L157.882 1.86668L157.027 1.01058L156.171 0.154475L146.684 0.0587005C141.466 0.006179 136.761 0.0441799 136.228 0.143353C135.695 0.242835 134.896 0.687105 134.453 1.13107C133.674 1.91024 133.646 2.06348 133.646 5.60528V9.27283L112.421 9.19343L91.1951 9.11403L91.0407 5.40663C90.9558 3.36756 90.7653 1.51138 90.6171 1.28152C89.8888 0.151694 88.5128 0 79 0C69.4872 0 68.1112 0.151694 67.3829 1.28152C67.2347 1.51138 67.0442 3.36756 66.9593 5.40663L66.8049 9.11403L45.5793 9.19343L24.3537 9.27283V5.62135C24.3537 2.34153 24.2879 1.89942 23.7066 1.27504C23.3506 0.892866 22.7165 0.449522 22.2972 0.290104C21.5683 0.012667 3.61156 -0.0562289 2.24015 0.212867ZM18.4877 12.358V18.537H12.313H6.13825V12.358V6.179H12.313H18.4877V12.358ZM85.1747 12.358V18.537H79H72.8253V12.358V6.179H79H85.1747V12.358ZM151.862 12.358V18.537H145.687H139.512V12.358V6.179H145.687H151.862V12.358ZM77.9194 32.7203C77.5798 32.8658 77.076 33.2446 76.7996 33.5619C76.5236 33.8792 73.3628 39.4906 69.7759 46.0311C65.1186 54.5238 63.2545 58.2062 63.2545 58.9128C63.2545 61.2194 66.2804 62.6409 67.9698 61.1279C68.4171 60.7275 70.3856 57.4802 72.3443 53.9118L75.9058 47.4238L75.9083 58.855L75.9111 70.2861L74.2171 71.1719C66.5462 75.183 66.908 86.1433 74.8321 89.8C79.6758 92.0353 85.7169 89.932 88.1559 85.1612C90.7817 80.0242 88.8413 73.8168 83.7829 71.1719L82.0889 70.2861L82.1019 58.855C82.1145 47.4832 82.1176 47.4294 82.6956 48.5052C83.0151 49.0999 87.7866 57.7749 93.2991 67.7827L103.322 85.9793L101.173 88.4675C95.6724 94.8378 91.8888 102.453 89.9836 110.99L89.794 111.84H79H68.206L68.0164 110.99C66.1112 102.453 62.3276 94.8375 56.8275 88.4682L54.6793 85.9805L56.5536 82.6129C58.725 78.7115 58.9485 77.4223 57.6737 76.1466C56.5681 75.0403 54.9899 74.8413 53.9315 75.6742C53.2205 76.234 51.0103 79.939 48.4428 84.8751C47.4394 86.8045 47.7636 87.6825 50.5734 90.6422C55.6682 96.0084 58.9007 101.365 60.8713 107.706C62.2492 112.139 62.2829 111.839 60.4045 111.845C55.449 111.859 52.1131 113.949 50.5734 118.004C49.1647 121.715 50.5012 126.244 53.654 128.443L54.8772 129.296L54.9751 142.805L55.0729 156.315L55.8939 157.137C57.0448 158.288 58.967 158.288 60.118 157.137L60.9389 156.315L61.0288 143.346L61.1189 130.377H79H96.8811L96.9712 143.346L97.0611 156.315L97.882 157.137C99.033 158.288 100.955 158.288 102.106 157.137L102.927 156.315L103.025 142.805L103.123 129.296L104.346 128.443C107.499 126.244 108.835 121.715 107.427 118.004C105.887 113.949 102.551 111.859 97.5955 111.845C95.7171 111.839 95.7508 112.139 97.1287 107.706C99.0993 101.365 102.332 96.0084 107.427 90.6422C110.236 87.6828 110.561 86.8048 109.557 84.8751C106.325 78.6556 81.5588 33.982 81.0494 33.4513C80.2998 32.6702 78.8345 32.3279 77.9194 32.7203ZM59.946 65.7433C59.0411 65.8799 57.6972 67.5102 57.6972 68.4714C57.6972 70.702 59.7753 72.1068 61.8139 71.2544C65.1093 69.8765 63.5255 65.2033 59.946 65.7433ZM80.7907 76.4358C83.054 77.6141 83.9808 80.2909 82.8521 82.3886C80.6048 86.5644 74.2205 84.601 74.7502 79.8973C75.0818 76.9542 78.2735 75.1252 80.7907 76.4358ZM18.4877 88.3597V94.5387H12.313H6.13825V88.3597V82.1807H12.313H18.4877V88.3597ZM151.862 88.3597V94.5387H145.687H139.512V88.3597V82.1807H145.687H151.862V88.3597ZM100.958 118.889C101.768 119.614 101.931 119.985 101.931 121.108C101.931 122.232 101.768 122.603 100.958 123.328L99.9842 124.198H79H58.0158L57.0424 123.328C56.2319 122.603 56.0692 122.232 56.0692 121.108C56.0692 119.985 56.2319 119.614 57.0424 118.889L58.0158 118.019H79H99.9842L100.958 118.889Z" fill="url(#paint0_linear_853_134)"/>
<defs>
<linearGradient id="paint0_linear_853_134" x1="0.0596243" y1="135.174" x2="156.888" y2="163.9" gradientUnits="userSpaceOnUse">
<stop stop-color="#FF5D8E"/>
<stop offset="1" stop-color="#B251FF"/>
</linearGradient>
</defs>
</svg>
